<?xml version="1.0" encoding="utf-8"?>
<!-- Generator: Adobe Illustrator 28.5.0, SVG Export Plug-In . SVG Version: 9.03 Build 54727)  -->
<svg version="1.0" id="Layer_1" xmlns="http://www.w3.org/2000/svg" xmlns:xlink="http://www.w3.org/1999/xlink" x="0px" y="0px"
	 viewBox="0 0 239.1 78.6" style="enable-background:new 0 0 239.1 78.6;" xml:space="preserve">
<style type="text/css">
	.st0{fill:#00A54F;}
	.st1{fill:#EE4037;}
	.st2{fill:#FFDD15;}
	.st3{fill:#F1F1F2;}
</style>
<g>
	<path class="st0" d="M47.9,62.1c-13,2.4-27.3,2.3-43-0.3c-1.3-0.5-2.3-1.6-3-3.5c-1.7-5.7-2.3-9-1.8-9.9c0.7-1,2.4-1.5,4.9-1.5H17
		c3.6-0.2,4.5-1.4,2.7-3.5c-0.5-0.6-1.1-1-1.7-1.4C5.2,33.9,0.4,24.9,3.5,15C6,8.8,12.3,4.4,22.3,1.9C37-1,49.9-0.6,60.7,3
		c0.4,0.1,0.7,0.3,1,0.5c0.2,0.1,0.3,0.2,0.5,0.4c0.5,0.4,0.8,1,1,1.7c1.2,6,1.9,13.7,2.1,23.1c0,1.2-0.8,2.3-1.9,2.7
		c-0.1,0-0.3,0.1-0.4,0.1c-0.6,0.1-1.2,0.2-1.8,0.2L45,31.3c-0.6,0-1.2,0.1-1.5,0.3c-0.7,0.3-0.8,1.3-0.2,1.8
		c10.2,8.4,15,15.2,14.3,20.6C56.5,58.4,53.3,61.1,47.9,62.1z"/>
	<path class="st1" d="M101.6,64.3c-5.7,0.4-11.8,0.4-18.3,0.1c-10.7-0.4-16.6-3.7-17.7-9.9c-0.7-11.4-0.1-18.7,1.9-22.1
		c3.2-4.1,7.6-6.2,13.2-6.5c8.2-0.3,15.3-0.2,21.1,0.1c3.5,0.1,6.1,0.3,8,0.6c1.1,0.2,2.2,0.6,3.1,1.4c1.2,1.1,1.8,2.6,1.8,4.5
		c-0.1,18.3-0.6,32.6-1.5,42.7c-0.3,1.6-1.2,2.5-2.8,2.8c-2.2,0.5-4.1,0.7-7.3,0.2c-1.2-0.5-1.7-1.2-1.6-3
		C101.6,70.3,101.7,66.7,101.6,64.3z M95.8,48.6c0.8-0.2,1.3-0.8,1.5-1.6c0.3-2.1,0.3-3.8,0-5.1c-0.2-0.8-0.8-1.5-1.6-1.6
		c-2.8-0.6-6.4-0.6-10.9-0.1c-1.1,0.1-2,0.8-2.4,1.8c-0.3,0.8-0.3,2-0.1,3.7c0.3,1.6,1.1,2.6,2.4,3C90.7,49.1,94.4,49.1,95.8,48.6z"
		/>
	<path class="st0" d="M122.6,25.4c11.8,0.6,21.7,0.7,29.7,0.4c8-0.3,14.7-0.5,20.1-0.6c0.7,0,1.2,0.3,1.3,1
		c0.2,6.1,0.1,10.2-0.2,12.2c-0.1,0.8-0.7,1.6-1.4,2c-2,1-6.2,2.8-12.8,5.4c5.9-0.4,10.5-0.4,13.8,0c0.8,0.1,1.2,0.4,1.3,0.9
		c0.2,7.1,0.1,12.4-0.2,15.9c-0.1,0.7-0.5,1.3-1.1,1.5l0,0c-18.9,0.3-35.7,0.4-50.4,0.4c-0.8-0.2-1.2-0.5-1.2-1.1
		c-0.1-3.1,0-5.9,0.1-8.5c0.2-8.2,10.2-13.7,29.9-16.6c-19.4,0.3-29.2-0.1-29.4-1.1c-0.5-0.7-0.9-6.9-0.9-10.7
		C121.3,25.8,121.8,25.5,122.6,25.4z"/>
	<path class="st0" d="M179,63.1c0.2,0.8,0.9,1.2,2.3,1.2l12.7-0.2c0.7-0.2,1-0.6,0.8-1.1c-1-8.8-1.6-17-1.9-24.6
		c0-4.6,0.1-8.5,0.3-11.6c0-0.5-0.2-1-1.2-1l-10.6-0.1c-1.3-0.1-1.9,0.2-1.9,0.9c0,2.5,0.1,5.1,0.3,7.6c0.1,3.4,0,7.4-0.3,11.8
		C179.2,50.9,179.1,56.6,179,63.1z"/>
	<path class="st0" d="M214.6,38c0,2.9-0.1,5.7-0.1,8.5c0.1,0.6,0.6,0.9,1.4,1c6-0.1,10.8-0.4,14.6-1.1c3.6-0.7,6-0.9,7.3-0.7
		c0.6,0.1,1,0.6,1,1.1c0.4,5.9,0.4,10.5,0,13.7c-0.1,0.4-0.4,0.6-0.9,0.8c-14.5,3.3-25.9,3.7-34.3,1.2c-2.3-1.2-3.7-4.2-4-9.2
		c-0.3-8,0.3-20,1.7-36c0-0.4,0.2-0.8,0.6-1.1l0,0c3.5-2,7.6-2.5,12.2-2c1.3,0.3,0.9,1.7,1,1.9c0,3.6-0.3,5.5-0.3,8.6
		c0.1,1.7,1.2,2.2,3.4,1.9c4.4-0.5,8-0.8,11.7-0.8c0.2,0,0.4,0,0.6,0.1l0,0c0.6,0.2,0.9,0.7,1,1.3c0.3,4.1,0.4,7.1,0.3,9
		c0,0.4-0.2,0.7-0.5,0.9c0,0,0,0,0,0c-0.3,0.2-0.7,0.4-1.1,0.4C224.7,38.1,219.5,38.2,214.6,38z"/>
	<path class="st2" d="M112.3,11.4c-0.1-1.4-0.2-2.9-0.3-4.3c-0.1-0.7-0.1-1.4-0.2-2.1c0-0.1,0-0.3-0.1-0.6c0-0.1,0-0.1,0-0.2
		c0,0,0,0,0-0.1c0-0.1,0-0.1,0-0.1c0-0.3-0.1-0.7-0.1-1c0,0,0-0.1,0-0.1c-4.1,0.2-7.4,0.8-10.1,1.7c-3.3,1.2-5.3,2.6-5.8,4.2
		c-1.1,3.2-0.9,5.6,0.8,7.1c2.5,1.7,6.1,2.8,10.7,3.5c1.8,0.2,3.7,0.4,5.7,0.4C112.7,17.1,112.5,14.3,112.3,11.4z M132.9,6.8
		c-2.8-2.1-8-3.4-15.6-3.8c0.5,5.6,0.9,11.3,1.3,16.9c1.4-0.1,2.9-0.2,4.4-0.3c4.1-0.2,7.2-1.1,9.2-2.7c2-1.6,3-3.2,3-4.9
		C135.2,9.5,134.5,7.7,132.9,6.8z"/>
	<path class="st2" d="M177.7,8.1c-2.6-2-7.4-3.2-14.2-3.7c0.5,5.5,0.9,11,1.3,16.5c0,0.1,0,0.2,0,0.3c1-0.1,2-0.1,3-0.2
		c4.1-0.2,7.2-1.1,9.2-2.7c2-1.6,3-3.2,3-4.9C180,10.8,179.3,9.1,177.7,8.1z M158.4,11.4c-0.1-1.4-0.2-2.9-0.3-4.3
		c-0.1-0.7-0.1-1.4-0.2-2.1c0-0.1,0-0.4-0.1-0.6c0,0,0-0.1,0-0.1c0,0,0-0.1,0-0.1c0,0,0,0,0,0c-4.7,0.1-8.6,0.7-11.5,1.8
		c-3.3,1.2-5.3,2.6-5.8,4.2c-1.1,3.2-0.9,5.6,0.8,7.1c2.5,1.7,6.1,2.8,10.7,3.5c2.3,0.3,4.6,0.4,7.1,0.4c0-0.1,0-0.3,0-0.4
		C158.9,17.7,158.6,14.6,158.4,11.4z"/>
	<path class="st3" d="M157.8,4.3c0,0,0-0.1,0-0.1C157.8,4.2,157.8,4.2,157.8,4.3C157.8,4.3,157.8,4.3,157.8,4.3z"/>
</g>
</svg>
